<svg id="Layer_1" enable-background="new 0 0 512 512" height="512" viewBox="0 0 512 512" width="512" xmlns="http://www.w3.org/2000/svg"><path d="m308.171 430.41h26.623c4.174 0 7.557-3.383 7.557-7.557s-3.383-7.557-7.557-7.557h-26.623c-4.174 0-7.557 3.383-7.557 7.557s3.383 7.557 7.557 7.557z"/><path d="m308.171 466.742h26.623c4.174 0 7.557-3.383 7.557-7.557s-3.383-7.557-7.557-7.557h-26.623c-4.174 0-7.557 3.383-7.557 7.557s3.383 7.557 7.557 7.557z"/><path d="m211.825 171.407c-4.174 0-7.557 3.383-7.557 7.557v6.66c0 4.174 3.383 7.557 7.557 7.557s7.557-3.383 7.557-7.557v-6.66c0-4.174-3.383-7.557-7.557-7.557z"/><path d="m299.522 193.181c4.174 0 7.557-3.383 7.557-7.557v-6.66c0-4.174-3.383-7.557-7.557-7.557s-7.557 3.383-7.557 7.557v6.66c.001 4.173 3.384 7.557 7.557 7.557z"/><path d="m438.434 363.331c-14.524-22.37-33.828-40.162-57.006-52.772-.538-.388-1.129-.706-1.759-.943-13.343-7.049-27.956-12.381-43.641-15.929l-12.33-16.889c22.368-18.708 39.678-43.986 46.566-68.923 7.166-1.435 14.435-5.376 20.308-11.179 7.159-7.073 11.265-15.943 11.265-24.335v-11.902c0-10.37-8.452-18.808-18.842-18.808h-9.484v-15.767c0-.038 0-.077 0-.115-.457-29.972-10.155-57.336-28.046-79.136-15.72-19.154-37.765-33.775-62.074-41.171-20.421-6.212-41.106-7.145-59.818-2.696-19.242 4.576-35.005 14.595-45.744 29.043-18.919 7.329-31.709 19.984-38.036 37.645-5.367 14.978-5.006 30.164-4.742 41.251.048 2.01.094 3.908.094 5.544v25.402h-9.229c-10.389 0-18.841 8.437-18.841 18.808v11.137c0 8.527 4.123 17.491 11.314 24.595 5.801 5.731 12.76 9.529 19.764 10.925 6.911 26.075 25.183 52.546 48.745 71.582l-10.95 14.989c-15.676 3.548-30.274 8.874-43.602 15.914-.661.244-1.279.578-1.838.987-23.812 12.971-43.528 31.421-58.194 54.705-2.225 3.532-1.166 8.198 2.367 10.422 3.531 2.225 8.197 1.165 10.421-2.367 11.247-17.856 25.391-32.374 42.302-43.468v96.299h-42.801c-7.7 0-13.964 6.25-13.964 13.934v1.871c0 20.462 8.038 40.493 21.168 54.899-28.304-.09-33.699-8.459-33.699-23.839 0-22.647 3.703-45.32 10.708-65.572.349-.958.696-1.915 1.015-2.844 1.36-3.946-.737-8.247-4.683-9.606-3.946-1.36-8.248.739-9.606 4.684-.299.866-.623 1.758-.948 2.651-.015.038-.028.077-.041.115-7.563 21.838-11.559 46.241-11.559 70.573 0 14.366 4.789 24.866 14.235 31.209 7.872 5.284 19.003 7.746 35.03 7.746h21.067 21.633 42.587 199.467 42.729c16.015 0 27.142-2.462 35.017-7.747 9.455-6.345 14.247-16.846 14.247-31.21 0-40.385-10.857-79.348-30.572-109.712zm-64.923-178.076v-28.49h9.484c2.021 0 3.729 1.691 3.729 3.693v11.902c0 4.315-2.533 9.393-6.774 13.584-2.036 2.012-4.319 3.686-6.659 4.932.142-1.886.22-3.761.22-5.621zm-244.501.184c-4.272-4.221-6.823-9.396-6.823-13.844v-11.137c0-2.002 1.708-3.693 3.728-3.693h9.229v28.49c0 1.616.06 3.245.166 4.881-2.216-1.199-4.371-2.791-6.3-4.697zm194.434 116.645c-2.61 9.015-9.814 17.365-20.619 23.764-12.786 7.571-29.435 11.741-46.881 11.741-33.013 0-61.165-15.088-67.373-35.561l10.554-14.446c7.834 5.083 16.077 9.328 24.559 12.476 10.927 4.06 20.654 6.09 30.383 6.09 9.774 0 19.551-2.05 30.546-6.15 9.371-3.494 18.452-8.309 27.013-14.104zm-138.287-256.877c1.49-.531 2.776-1.515 3.677-2.815 17.076-24.65 53.309-33.681 90.157-22.47 37.771 11.49 78.458 45.376 79.406 106.022v15.707h-29.331c-18.937 0-38.363-9.787-58.93-20.147-20.929-10.544-43.257-21.791-65.936-21.791-17.933 0-36.089 7.035-53.945 27.012v-10.475c0-1.815-.047-3.801-.097-5.903-.493-20.8-1.242-52.23 34.999-65.14zm-33.432 153.661c-.025-.145-.051-.291-.084-.433-.892-4.468-1.385-8.883-1.385-13.18v-33.766c36.785-54.912 72.174-37.095 113.08-16.488 21.239 10.699 43.201 21.764 65.73 21.764h29.331v28.49c0 4.401-.519 8.929-1.467 13.513-.127.426-.222.866-.273 1.321-5.577 24.791-24.082 51.144-47.69 69.102-.04.028-.082.051-.122.08-.055.04-.104.086-.158.128-9.175 6.942-19.111 12.617-29.356 16.437-18.618 6.942-31.803 6.957-50.388.053-37.029-13.745-70.023-52.044-77.218-87.021zm-9.209 122.371c9.402-4.649 19.508-8.405 30.309-11.258v60.596h-30.309zm33.032 175.647h-40.59-19.633c-17.496-10.434-29.574-32.708-29.574-54.903v-.69h119.394c.007.134.009.289.004.469-.002.074-.003.147-.003.221.001 22.2-12.086 44.475-29.598 54.903zm193.908 0h-170.378c2.615-2.866 5.024-5.958 7.211-9.229h18.891c15.759 0 24.263-13.106 24.263-25.438 0-12.431-8.334-25.016-24.263-25.016h-5.405c-.762-3.186-2.282-5.37-3.641-6.769-1.885-1.941-5.285-4.255-10.773-4.255h-62.846v-40.487h96.217c4.174 0 7.557-3.383 7.557-7.557s-3.383-7.557-7.557-7.557h-50.795v-42.088c15.194 14.856 39.95 24.213 68.006 24.213 20.115 0 39.499-4.919 54.581-13.85 5.126-3.036 9.643-6.475 13.509-10.225v41.947h-48.016c-4.174 0-7.557 3.383-7.557 7.557s3.383 7.557 7.557 7.557h93.439zm-155.195-24.344c2.592-6.443 4.406-13.254 5.317-20.225h5.602c8.707 0 9.148 8.248 9.148 9.902 0 1.056-.257 10.323-9.148 10.323zm155.195-101.965h-30.309v-60.592c11.005 2.919 21.089 6.744 30.309 11.334zm50.285 126.309h-35.171v-118.752-48.127c50.165 33.045 69.323 91.413 69.323 143.036-.001 15.463-5.444 23.843-34.152 23.843z"/></svg>