<?xml version="1.0" encoding="iso-8859-1"?>
<!-- Generator: Adobe Illustrator 19.0.0, SVG Export Plug-In . SVG Version: 6.00 Build 0)  -->
<svg version="1.1" id="Capa_1" xmlns="http://www.w3.org/2000/svg" xmlns:xlink="http://www.w3.org/1999/xlink" x="0px" y="0px"
	 viewBox="0 0 512 512" style="enable-background:new 0 0 512 512;" xml:space="preserve">
<g>
	<g>
		<path d="M110.933,115.2H8.533c-4.71,0-8.533,3.823-8.533,8.533V166.4c0,4.71,3.823,8.533,8.533,8.533h102.4
			c4.71,0,8.533-3.823,8.533-8.533v-42.667C119.467,119.023,115.644,115.2,110.933,115.2z M102.4,157.867H17.067v-25.6H102.4
			V157.867z"/>
	</g>
</g>
<g>
	<g>
		<path d="M503.467,115.2h-102.4c-4.71,0-8.533,3.823-8.533,8.533V166.4c0,4.71,3.823,8.533,8.533,8.533h102.4
			c4.71,0,8.533-3.823,8.533-8.533v-42.667C512,119.023,508.177,115.2,503.467,115.2z M494.933,157.867H409.6v-25.6h85.333V157.867z
			"/>
	</g>
</g>
<g>
	<g>
		<path d="M418.133,251.733H93.867c-4.71,0-8.533,3.823-8.533,8.533v204.8c0,4.71,3.823,8.533,8.533,8.533h324.267
			c4.71,0,8.533-3.823,8.533-8.533v-204.8C426.667,255.556,422.844,251.733,418.133,251.733z M409.6,456.533H102.4V268.8h307.2
			V456.533z"/>
	</g>
</g>
<g>
	<g>
		<path d="M426.667,456.533H256c-4.71,0-8.533,3.823-8.533,8.533V499.2c0,4.71,3.823,8.533,8.533,8.533h170.667
			c4.71,0,8.533-3.823,8.533-8.533v-34.133C435.2,460.356,431.377,456.533,426.667,456.533z M418.133,490.667h-153.6V473.6h153.6
			V490.667z"/>
	</g>
</g>
<g>
	<g>
		<path d="M443.401,257.92l-17.067-59.733c-1.041-3.661-4.386-6.187-8.201-6.187H93.867c-3.814,0-7.159,2.526-8.201,6.187
			L68.599,257.92c-0.742,2.577-0.222,5.342,1.391,7.484c1.613,2.142,4.13,3.396,6.81,3.396h358.4c2.679,0,5.197-1.254,6.81-3.396
			C443.622,263.262,444.134,260.497,443.401,257.92z M88.115,251.733l12.186-42.667h311.398l12.194,42.667H88.115z"/>
	</g>
</g>
<g>
	<g>
		<path d="M503.467,456.533H8.533c-4.71,0-8.533,3.823-8.533,8.533V499.2c0,4.71,3.823,8.533,8.533,8.533h494.933
			c4.71,0,8.533-3.823,8.533-8.533v-34.133C512,460.356,508.177,456.533,503.467,456.533z M494.933,490.667H17.067V473.6h477.867
			V490.667z"/>
	</g>
</g>
<g>
	<g>
		<path d="M264.533,285.867H128c-4.71,0-8.533,3.823-8.533,8.533v136.533c0,4.71,3.823,8.533,8.533,8.533h136.533
			c4.71,0,8.533-3.823,8.533-8.533V294.4C273.067,289.69,269.244,285.867,264.533,285.867z M256,422.4H136.533V302.933H256V422.4z"
			/>
	</g>
</g>
<g>
	<g>
		<path d="M384,285.867h-85.333c-4.71,0-8.533,3.823-8.533,8.533v170.667c0,4.71,3.823,8.533,8.533,8.533H384
			c4.71,0,8.533-3.823,8.533-8.533V294.4C392.533,289.69,388.71,285.867,384,285.867z M375.467,456.533H307.2v-153.6h68.267V456.533
			z"/>
	</g>
</g>
<g>
	<g>
		<path d="M358.4,371.2h-17.067c-4.71,0-8.533,3.823-8.533,8.533s3.823,8.533,8.533,8.533H358.4c4.71,0,8.533-3.823,8.533-8.533
			S363.11,371.2,358.4,371.2z"/>
	</g>
</g>
<g>
	<g>
		<path d="M119.467,234.667c-4.71,0-8.533,3.823-8.533,8.533v17.067c0,4.71,3.823,8.533,8.533,8.533s8.533-3.823,8.533-8.533V243.2
			C128,238.49,124.177,234.667,119.467,234.667z"/>
	</g>
</g>
<g>
	<g>
		<path d="M153.6,234.667c-4.71,0-8.533,3.823-8.533,8.533v17.067c0,4.71,3.823,8.533,8.533,8.533c4.71,0,8.533-3.823,8.533-8.533
			V243.2C162.133,238.49,158.31,234.667,153.6,234.667z"/>
	</g>
</g>
<g>
	<g>
		<path d="M187.733,234.667c-4.71,0-8.533,3.823-8.533,8.533v17.067c0,4.71,3.823,8.533,8.533,8.533s8.533-3.823,8.533-8.533V243.2
			C196.267,238.49,192.444,234.667,187.733,234.667z"/>
	</g>
</g>
<g>
	<g>
		<path d="M221.867,234.667c-4.71,0-8.533,3.823-8.533,8.533v17.067c0,4.71,3.823,8.533,8.533,8.533c4.71,0,8.533-3.823,8.533-8.533
			V243.2C230.4,238.49,226.577,234.667,221.867,234.667z"/>
	</g>
</g>
<g>
	<g>
		<path d="M256,234.667c-4.71,0-8.533,3.823-8.533,8.533v17.067c0,4.71,3.823,8.533,8.533,8.533s8.533-3.823,8.533-8.533V243.2
			C264.533,238.49,260.71,234.667,256,234.667z"/>
	</g>
</g>
<g>
	<g>
		<path d="M290.133,234.667c-4.71,0-8.533,3.823-8.533,8.533v17.067c0,4.71,3.823,8.533,8.533,8.533s8.533-3.823,8.533-8.533V243.2
			C298.667,238.49,294.844,234.667,290.133,234.667z"/>
	</g>
</g>
<g>
	<g>
		<path d="M324.267,234.667c-4.71,0-8.533,3.823-8.533,8.533v17.067c0,4.71,3.823,8.533,8.533,8.533s8.533-3.823,8.533-8.533V243.2
			C332.8,238.49,328.977,234.667,324.267,234.667z"/>
	</g>
</g>
<g>
	<g>
		<path d="M358.4,234.667c-4.71,0-8.533,3.823-8.533,8.533v17.067c0,4.71,3.823,8.533,8.533,8.533s8.533-3.823,8.533-8.533V243.2
			C366.933,238.49,363.11,234.667,358.4,234.667z"/>
	</g>
</g>
<g>
	<g>
		<path d="M392.533,234.667c-4.71,0-8.533,3.823-8.533,8.533v17.067c0,4.71,3.823,8.533,8.533,8.533c4.71,0,8.533-3.823,8.533-8.533
			V243.2C401.067,238.49,397.244,234.667,392.533,234.667z"/>
	</g>
</g>
<g>
	<g>
		<path d="M469.333,157.867H42.667c-4.71,0-8.533,3.823-8.533,8.533v298.667c0,4.71,3.823,8.533,8.533,8.533h426.667
			c4.71,0,8.533-3.823,8.533-8.533V166.4C477.867,161.69,474.044,157.867,469.333,157.867z M460.8,456.533H51.2v-281.6h409.6
			V456.533z"/>
	</g>
</g>
<g>
	<g>
		<path d="M401.067,4.267H110.933c-4.71,0-8.533,3.823-8.533,8.533v153.6c0,4.71,3.823,8.533,8.533,8.533h290.133
			c4.71,0,8.533-3.823,8.533-8.533V12.8C409.6,8.09,405.777,4.267,401.067,4.267z M392.533,157.867H119.467V21.333h273.067V157.867z
			"/>
	</g>
</g>
<g>
	<g>
		<path d="M290.133,38.4H204.8c-4.71,0-8.533,3.823-8.533,8.533V89.6c0,28.237,22.972,51.2,51.2,51.2s51.2-22.963,51.2-51.2V46.933
			C298.667,42.223,294.844,38.4,290.133,38.4z M281.6,89.6c0,18.825-15.309,34.133-34.133,34.133s-34.133-15.309-34.133-34.133
			V55.467H281.6V89.6z"/>
	</g>
</g>
<g>
	<g>
		<path d="M332.8,38.4h-42.667c-4.71,0-8.533,3.823-8.533,8.533V89.6c0,4.71,3.823,8.533,8.533,8.533
			c28.228,0,51.2-22.963,51.2-51.2C341.333,42.223,337.51,38.4,332.8,38.4z M298.667,79.991V55.467h24.525
			C320.094,67.447,310.647,76.894,298.667,79.991z"/>
	</g>
</g>
<g>
	<g>
		<path d="M307.2,123.733H187.733c-4.71,0-8.533,3.823-8.533,8.533s3.823,8.533,8.533,8.533H307.2c4.71,0,8.533-3.823,8.533-8.533
			S311.91,123.733,307.2,123.733z"/>
	</g>
</g>
<g>
	<g>
		<path d="M110.933,29.867H42.633c-14.097,0-25.566,11.469-25.566,25.566v68.301c0,4.71,3.823,8.533,8.533,8.533h85.333
			c4.71,0,8.533-3.823,8.533-8.533V38.4C119.467,33.69,115.644,29.867,110.933,29.867z M102.4,115.2H34.133V55.433
			c0-4.685,3.814-8.499,8.499-8.499H102.4V115.2z"/>
	</g>
</g>
<g>
	<g>
		<path d="M469.367,29.867h-68.301c-4.71,0-8.533,3.823-8.533,8.533v85.333c0,4.71,3.823,8.533,8.533,8.533H486.4
			c4.71,0,8.533-3.823,8.533-8.533V55.433C494.933,41.335,483.465,29.867,469.367,29.867z M477.867,115.2H409.6V46.933h59.767
			c4.685,0,8.499,3.814,8.499,8.499V115.2z"/>
	</g>
</g>
<g>
	<g>
		<path d="M196.267,388.267c-4.71,0-8.533,3.823-8.533,8.533v34.133c0,4.71,3.823,8.533,8.533,8.533s8.533-3.823,8.533-8.533V396.8
			C204.8,392.09,200.977,388.267,196.267,388.267z"/>
	</g>
</g>
<g>
	<g>
		<path d="M230.4,388.267h-68.267c-4.71,0-8.533,3.823-8.533,8.533s3.823,8.533,8.533,8.533H230.4c4.71,0,8.533-3.823,8.533-8.533
			S235.11,388.267,230.4,388.267z"/>
	</g>
</g>
<g>
	<g>
		<path d="M221.867,285.867h-51.2c-4.71,0-8.533,3.823-8.533,8.533v34.133c0,4.71,3.823,8.533,8.533,8.533h51.2
			c4.71,0,8.533-3.823,8.533-8.533V294.4C230.4,289.69,226.577,285.867,221.867,285.867z M213.333,320H179.2v-17.067h34.133V320z"/>
	</g>
</g>
<g>
	<g>
		<path d="M196.267,320c-4.71,0-8.533,3.823-8.533,8.533c0,14.114-11.486,25.6-25.6,25.6c-4.71,0-8.533,3.823-8.533,8.533
			s3.823,8.533,8.533,8.533c23.526,0,42.667-19.14,42.667-42.667C204.8,323.823,200.977,320,196.267,320z"/>
	</g>
</g>
<g>
	<g>
		<path d="M230.4,354.133c-14.114,0-25.6-11.486-25.6-25.6c0-4.71-3.823-8.533-8.533-8.533s-8.533,3.823-8.533,8.533
			c0,23.526,19.14,42.667,42.667,42.667c4.71,0,8.533-3.823,8.533-8.533S235.11,354.133,230.4,354.133z"/>
	</g>
</g>
<g>
</g>
<g>
</g>
<g>
</g>
<g>
</g>
<g>
</g>
<g>
</g>
<g>
</g>
<g>
</g>
<g>
</g>
<g>
</g>
<g>
</g>
<g>
</g>
<g>
</g>
<g>
</g>
<g>
</g>
</svg>
